<svg width="30" height="30" viewBox="0 0 30 30" fill="none" xmlns="http://www.w3.org/2000/svg">
<path d="M24.6325 10.0525L21.7175 12.9675L17.03 8.28004L19.945 5.36504C20.061 5.24885 20.1988 5.15668 20.3504 5.09379C20.5021 5.03091 20.6646 4.99854 20.8288 4.99854C20.9929 4.99854 21.1555 5.03091 21.3071 5.09379C21.4588 5.15668 21.5965 5.24885 21.7125 5.36504L24.6325 8.28504C24.7487 8.40102 24.8409 8.53878 24.9038 8.69042C24.9667 8.84206 24.999 9.00462 24.999 9.16879C24.999 9.33295 24.9667 9.49551 24.9038 9.64715C24.8409 9.7988 24.7487 9.93655 24.6325 10.0525ZM3.74878 21.56L16.33 8.98004L21.0175 13.6675L8.43628 26.2475H3.75003V21.56H3.74878ZM20.7763 6.30504L18.8513 8.22879L21.7725 11.1475L23.695 9.22379L20.7763 6.30504ZM19.1963 13.7238L16.2775 10.8038L5.00003 22.08V25H7.92003L19.1963 13.7238Z" fill="#0500f3"/>
</svg>
