<svg width="30" height="30" viewBox="0 0 30 30" fill="none" xmlns="http://www.w3.org/2000/svg">
<path class="outer" d="M8.75 15H13.75V10H15V15H20V16.25H15V21.25H13.75V16.25H8.75V15ZM7.5 5H21.25C22.2446 5 23.1984 5.39509 23.9017 6.09835C24.6049 6.80161 25 7.75544 25 8.75V22.5C25 23.4946 24.6049 24.4484 23.9017 25.1517C23.1984 25.8549 22.2446 26.25 21.25 26.25H7.5C6.50544 26.25 5.55161 25.8549 4.84835 25.1517C4.14509 24.4484 3.75 23.4946 3.75 22.5V8.75C3.75 7.75544 4.14509 6.80161 4.84835 6.09835C5.55161 5.39509 6.50544 5 7.5 5ZM7.5 6.25C6.83696 6.25 6.20107 6.51339 5.73223 6.98223C5.26339 7.45107 5 8.08696 5 8.75V22.5C5 23.163 5.26339 23.7989 5.73223 24.2678C6.20107 24.7366 6.83696 25 7.5 25H21.25C21.913 25 22.5489 24.7366 23.0178 24.2678C23.4866 23.7989 23.75 23.163 23.75 22.5V8.75C23.75 8.08696 23.4866 7.45107 23.0178 6.98223C22.5489 6.51339 21.913 6.25 21.25 6.25H7.5Z" fill="#16b51c"/>
</svg>
