<svg width="30" height="30" viewBox="0 0 30 30" fill="none" xmlns="http://www.w3.org/2000/svg">
<path d="M22.5 23.75C22.5 24.7446 22.1049 25.6984 21.4017 26.4017C20.6984 27.1049 19.7446 27.5 18.75 27.5H10C9.00544 27.5 8.05161 27.1049 7.34835 26.4017C6.64509 25.6984 6.25 24.7446 6.25 23.75V8.75H5V5H10.625L11.875 3.75H16.875L18.125 5H23.75V8.75H22.5V23.75ZM7.5 8.75V23.75C7.5 24.413 7.76339 25.0489 8.23223 25.5178C8.70107 25.9866 9.33696 26.25 10 26.25H18.75C19.413 26.25 20.0489 25.9866 20.5178 25.5178C20.9866 25.0489 21.25 24.413 21.25 23.75V8.75H7.5ZM22.5 7.5V6.25H17.5L16.25 5H12.5L11.25 6.25H6.25V7.5H22.5ZM10 11.25H11.25V23.75H10V11.25ZM17.5 11.25H18.75V23.75H17.5V11.25Z" fill="#F30000"/>
</svg>
