<svg width="24" height="24" viewBox="0 0 24 24" fill="none" xmlns="http://www.w3.org/2000/svg">
<path d="M9.5 3C11.4891 3 13.3968 3.79018 14.8033 5.1967C16.2098 6.60322 17 8.51088 17 10.5C17 12.4891 16.2098 14.3968 14.8033 15.8033C13.3968 17.2098 11.4891 18 9.5 18C7.51088 18 5.60322 17.2098 4.1967 15.8033C2.79018 14.3968 2 12.4891 2 10.5C2 8.51088 2.79018 6.60322 4.1967 5.1967C5.60322 3.79018 7.51088 3 9.5 3ZM9.5 3.78947C7.72026 3.78947 6.01341 4.49647 4.75494 5.75494C3.49647 7.01341 2.78947 8.72026 2.78947 10.5C2.78947 12.2797 3.49647 13.9866 4.75494 15.2451C6.01341 16.5035 7.72026 17.2105 9.5 17.2105C11.2797 17.2105 12.9866 16.5035 14.2451 15.2451C15.5035 13.9866 16.2105 12.2797 16.2105 10.5C16.2105 8.72026 15.5035 7.01341 14.2451 5.75494C12.9866 4.49647 11.2797 3.78947 9.5 3.78947Z" fill="#21232C"/>
<path d="M14.0841 16.3066L14.9951 15.3955L21.4882 21.8886L20.5722 22.7947L14.0841 16.3066Z" fill="#21232C"/>
</svg>
